<svg width="52" height="58" viewBox="0 0 52 58" fill="none" xmlns="http://www.w3.org/2000/svg">
<path d="M15.6667 9C14.248 8.9996 12.8548 9.37645 11.6297 10.0919C10.4047 10.8074 9.39195 11.8358 8.69532 13.0717C7.99869 14.3075 7.64323 15.7064 7.66538 17.1249C7.68753 18.5434 8.08649 19.9305 8.82136 21.144C6.99614 21.4967 5.35063 22.4738 4.16737 23.9076C2.9841 25.3413 2.33691 27.1423 2.33691 29.0013C2.33691 30.8603 2.9841 32.6613 4.16737 34.0951C5.35063 35.5289 6.99614 36.506 8.82136 36.8587M15.6667 9C15.6667 7.23189 16.3691 5.5362 17.6193 4.28596C18.8696 3.03571 20.5653 2.33334 22.3334 2.33334C24.1015 2.33334 25.7972 3.03571 27.0474 4.28596C28.2977 5.5362 29 7.23189 29 9V49C29 50.7681 28.2977 52.4638 27.0474 53.714C25.7972 54.9643 24.1015 55.6667 22.3334 55.6667C20.5653 55.6667 18.8696 54.9643 17.6193 53.714C16.3691 52.4638 15.6667 50.7681 15.6667 49C14.2484 49.0001 12.8556 48.6232 11.631 47.9078C10.4063 47.1925 9.39385 46.1644 8.6973 44.929C8.00076 43.6935 7.64517 42.2951 7.66697 40.877C7.68877 39.4589 8.08717 38.0721 8.82136 36.8587M15.6667 9C15.6667 11.1813 16.7147 13.1173 18.3334 14.3333M8.82136 36.8587C9.77837 35.2743 11.2551 34.0709 13 33.4533M48.3334 9.66667L42.3334 15.6667H37M48.3334 48.3333L42.3334 42.3333H37M48.3334 29H37M46.3334 9.66667C46.3334 10.1971 46.5441 10.7058 46.9191 11.0809C47.2942 11.456 47.8029 11.6667 48.3334 11.6667C48.8638 11.6667 49.3725 11.456 49.7476 11.0809C50.1226 10.7058 50.3334 10.1971 50.3334 9.66667C50.3334 9.13624 50.1226 8.62753 49.7476 8.25246C49.3725 7.87738 48.8638 7.66667 48.3334 7.66667C47.8029 7.66667 47.2942 7.87738 46.9191 8.25246C46.5441 8.62753 46.3334 9.13624 46.3334 9.66667ZM46.3334 48.3333C46.3334 47.8029 46.5441 47.2942 46.9191 46.9191C47.2942 46.544 47.8029 46.3333 48.3334 46.3333C48.8638 46.3333 49.3725 46.544 49.7476 46.9191C50.1226 47.2942 50.3334 47.8029 50.3334 48.3333C50.3334 48.8638 50.1226 49.3725 49.7476 49.7475C49.3725 50.1226 48.8638 50.3333 48.3334 50.3333C47.8029 50.3333 47.2942 50.1226 46.9191 49.7475C46.5441 49.3725 46.3334 48.8638 46.3334 48.3333ZM46.3334 29C46.3334 29.5304 46.5441 30.0391 46.9191 30.4142C47.2942 30.7893 47.8029 31 48.3334 31C48.8638 31 49.3725 30.7893 49.7476 30.4142C50.1226 30.0391 50.3334 29.5304 50.3334 29C50.3334 28.4696 50.1226 27.9609 49.7476 27.5858C49.3725 27.2107 48.8638 27 48.3334 27C47.8029 27 47.2942 27.2107 46.9191 27.5858C46.5441 27.9609 46.3334 28.4696 46.3334 29Z" stroke="url(#paint0_linear_303_571)" stroke-width="3" stroke-linecap="round" stroke-linejoin="round"/>
<defs>
<linearGradient id="paint0_linear_303_571" x1="9.81177" y1="73" x2="56.5675" y2="69.3092" gradientUnits="userSpaceOnUse">
<stop stop-color="#F15D2A"/>
<stop offset="1" stop-color="#F59C49"/>
</linearGradient>
</defs>
</svg>
