<svg width="58" height="44" viewBox="0 0 58 44" fill="none" xmlns="http://www.w3.org/2000/svg">
<path d="M43.6078 17.6667H43.6665C46.8491 17.6667 49.9013 18.931 52.1518 21.1814C54.4022 23.4318 55.6665 26.4841 55.6665 29.6667C55.6665 32.8493 54.4022 35.9015 52.1518 38.152C49.9013 40.4024 46.8491 41.6667 43.6665 41.6667H15.6665C12.2408 41.6673 8.9462 40.3494 6.46608 37.9862C3.98597 35.623 2.51061 32.3959 2.34598 28.9741C2.18136 25.5523 3.3401 22.1984 5.5819 19.6081C7.82369 17.0177 10.9765 15.3896 14.3865 15.0613M43.6078 17.6667C43.6452 17.2276 43.6647 16.7831 43.6665 16.3333C43.6723 12.5498 42.2158 8.91041 39.6012 6.17559C36.9867 3.44077 33.4164 1.82215 29.6364 1.65794C25.8564 1.49373 22.1592 2.79663 19.3174 5.29441C16.4755 7.79218 14.7088 11.2916 14.3865 15.0613M43.6078 17.6667C43.3394 20.6038 42.1917 23.3918 40.3145 25.6667M14.3865 15.0613C14.8078 15.0205 15.2345 15 15.6665 15C18.6692 15 21.4398 15.992 23.6665 17.6667" stroke="url(#paint0_linear_303_559)" stroke-width="3" stroke-linecap="round" stroke-linejoin="round"/>
<defs>
<linearGradient id="paint0_linear_303_559" x1="10.637" y1="54.674" x2="62.2132" y2="48.6451" gradientUnits="userSpaceOnUse">
<stop stop-color="#F15D2A"/>
<stop offset="1" stop-color="#F59C49"/>
</linearGradient>
</defs>
</svg>
