<svg width="180" height="56" viewBox="0 0 180 56" fill="none" xmlns="http://www.w3.org/2000/svg">
<path d="M125.619 4.30181C125.619 4.30181 122.271 5.64075 118.381 9.92539C114.483 14.2175 112.222 19.0377 113.895 20.3171C114.543 20.8081 116.03 20.9048 118.731 18.4575C121.208 16.2909 123.157 13.5862 124.428 10.5502C126.169 6.31023 125.619 4.35388 125.619 4.30181ZM146.915 12.0231C142.594 9.79894 139.432 7.08384 136.144 5.40272C133.005 3.79598 130.974 3.11907 128.438 3.46125C128.085 3.52284 127.737 3.60984 127.396 3.7216C127.396 3.7216 128.706 8.18476 123.506 15.6754C118.24 23.2777 113.464 23.2256 112.103 21.1354C110.682 18.9335 112.519 14.4406 115.584 10.4461C118.797 6.2656 124.436 2.79921 124.436 2.79921C124.436 2.79921 122.643 1.69829 118.225 4.21254C113.91 6.63753 106.494 12.4471 99.6133 22.2363C92.7251 32.0255 91.3564 37.411 90.3745 41.6511C89.3926 45.8911 90.2853 50.4286 94.9865 50.4286C99.6877 50.4286 105.162 43.2578 106.71 40.7659C109.581 36.1242 111.448 29.0054 107.543 29.9799C105.616 30.4634 104.062 32.5908 103.08 34.6439C102.461 35.9622 101.987 37.344 101.666 38.7649C100.3 39.3281 99.0164 40.0738 97.8503 40.9816C96.5606 41.9481 95.3516 43.0178 94.2352 44.1802C94.2352 44.1802 94.2501 40.7882 96.9503 35.2985C99.6579 29.8162 104.612 27.3094 107.424 27.0714C109.953 26.8705 113.248 29.0203 110.459 36.9424C107.669 44.8645 99.4273 54.4975 90.7762 54.6165C82.7946 54.7281 77.5653 44.5372 88.6785 26.759C100.982 7.09872 115.413 1.07345 120.092 0.403976C124.778 -0.265499 126.303 1.795 126.303 1.795C129.121 0.637463 132.166 0.136344 135.207 0.329588C140.935 0.716396 145.353 4.763 151.2 7.61198C149.675 9.06251 148.225 10.5874 146.923 12.0156M172.616 5.39528C168.651 7.93929 163.169 10.2453 157.895 9.7543C156.563 11.1304 155.135 12.7297 153.707 14.4704C162.841 16.278 170.853 10.6097 175.108 5.78953C176.661 4.06072 177.995 2.14696 179.08 0.0915558C177.141 2.10914 174.971 3.88432 172.616 5.39528ZM160.446 31.1552C160.515 31.0343 160.572 30.9073 160.617 30.7758C160.591 30.5658 160.493 30.3713 160.34 30.225C160.186 30.0787 159.988 29.9895 159.777 29.9724C158.906 29.9352 157.716 30.0989 154.607 33.543C152.023 36.3911 149.799 39.5465 147.987 42.9379C146.201 46.196 145.48 48.621 146.499 49.2459C146.834 49.4193 147.222 49.4592 147.585 49.3574C148.277 49.1938 149.065 48.5392 150.263 47.1631C150.821 46.5085 151.438 45.5861 152.182 44.567C154.242 41.7701 159.42 32.9404 160.446 31.1552ZM128.096 34.9042C128.616 33.5504 129.278 30.88 127.902 29.8311C126.422 28.7153 122.658 31.3263 122.636 34.0042C122.613 36.749 125.291 37.9838 125.931 38.1623C126.303 38.259 126.422 38.2367 126.601 37.9466C127.175 36.9719 127.675 35.9548 128.096 34.9042ZM125.247 39.8881C124.312 39.4596 123.441 38.9039 122.658 38.2367C121.871 37.5789 121.215 36.779 120.724 35.8787C120.665 35.7894 120.612 35.8564 120.553 35.9382C120.501 36.0126 120.263 36.2283 118.254 39.1666C116.246 42.1122 113.166 48.2119 115.948 49.2459C117.741 49.9153 120.717 46.7837 122.346 44.7083C123.453 43.2612 124.452 41.7346 125.336 40.141C125.425 39.9699 125.336 39.9253 125.247 39.8881ZM156.92 46.9325C156.162 48.145 155.299 50.4732 157.791 49.0227C160.84 47.2672 165.185 40.6692 165.185 40.6692H167.156C165.36 43.4258 163.364 46.0463 161.183 48.5094C158.096 51.9312 154.324 55.048 151.661 54.7356C148.567 54.3785 149.534 50.3022 149.534 50.3022C149.534 50.3022 145.1 55.0257 142.021 54.6909C137.877 54.2297 139.142 49.1045 139.142 49.1045C139.142 49.1045 134.456 54.862 131.257 54.6835C126.251 54.3859 127.508 48.2937 128.907 44.0017C129.65 41.7106 130.342 39.9104 130.342 39.9104C130.342 39.9104 129.844 40.0369 128.78 40.1931C128.215 40.2749 127.203 40.3344 127.203 40.3344C127.203 40.3344 125.12 44.0165 123.447 46.2258C121.773 48.4351 114.684 56.0596 110.503 54.5347C106.65 53.1214 107.93 47.2151 110.176 42.5214C113.449 35.6778 122.673 25.8366 127.999 27.1383C133.511 28.4773 128.125 38.5343 128.125 38.5343C128.125 38.5343 128.125 38.5715 128.178 38.6012C128.289 38.6384 128.579 38.6756 129.241 38.5417C129.929 38.4032 130.604 38.204 131.257 37.9466C131.257 37.9466 136.806 26.335 142.928 18.7327C149.05 11.1453 161.264 -1.94663 166.062 1.22222C167.223 2.00327 166.702 4.68118 165.125 7.93185C164.414 8.16138 163.691 8.35503 162.96 8.51206C164.017 6.5929 164.716 4.97872 164.924 3.84805C165.646 -0.0795312 156.481 8.19963 149.935 17.0888C145.99 22.4504 142.485 28.1222 139.454 34.0488C140.635 33.325 141.763 32.5197 142.832 31.6387C145.754 29.2179 148.53 26.6273 151.148 23.8802C153.669 21.303 156.031 18.5755 158.222 15.7126C158.919 15.6733 159.614 15.6014 160.305 15.4969C157.913 18.7445 155.303 21.8262 152.494 24.7208C149.891 27.3615 147.064 30.203 144.602 32.271C142.406 34.1314 140.093 35.8483 137.677 37.411C137.677 37.411 131.949 48.9632 135.066 49.6996C136.896 50.1459 140.511 44.567 140.511 44.567C140.511 44.567 145.234 37.3739 148.076 34.1232C151.959 29.7121 155.291 27.1606 158.639 27.116C160.58 27.0788 161.726 29.1468 161.726 29.1468L162.641 27.7334H168.272C168.272 27.7334 157.753 45.5712 156.913 46.9176M172.616 5.41016C168.651 7.94673 163.169 10.2527 157.895 9.76175C156.556 11.1379 155.135 12.7372 153.699 14.4778C162.841 16.2854 170.845 10.6246 175.108 5.79697C176.661 4.06585 177.996 2.14956 179.08 0.0915558C177.141 2.10914 174.971 3.88432 172.616 5.39528M93.5434 14.158H88.1876L85.1601 19.0526H90.5159L93.5434 14.158ZM68.1777 31.0957C70.4614 27.9715 76.747 17.0293 76.747 17.0293C76.7207 16.8204 76.6237 16.6268 76.4721 16.4806C76.3206 16.3345 76.1236 16.2446 75.9139 16.2259C75.0436 16.1813 73.593 16.4788 70.7069 20.0865C67.8207 23.6943 65.5891 26.5581 63.9601 29.5484C62.1748 32.8065 61.3863 35.1051 62.4203 35.7299C62.7509 35.8996 63.133 35.9394 63.4914 35.8415C64.1609 35.6778 65.0387 35.0009 66.2363 33.6248C66.9159 32.8053 67.5659 31.9617 68.1852 31.0957M39.4498 16.2928C37.9696 15.177 34.2056 17.788 34.1833 20.4585C34.161 23.2033 37.5753 24.0439 38.0142 24.0587C38.1425 24.0665 38.2707 24.0409 38.3861 23.9844C38.4649 23.9373 38.5272 23.8672 38.5647 23.7835C38.9624 22.9942 39.3248 22.1875 39.6507 21.366C40.1714 20.0047 40.826 17.3417 39.4498 16.2928ZM37.2183 25.7399C36.1985 25.418 35.2237 24.9681 34.3172 24.4009C33.4347 23.8313 32.7187 23.0383 32.2418 22.1024C32.1898 22.0131 32.1303 22.0801 32.0782 22.1619C32.0261 22.2437 31.7286 22.6157 29.7127 25.5688C27.7043 28.5294 24.714 34.5695 27.5109 35.6109C29.2962 36.2804 32.3013 33.1264 33.9378 31.0585C35.1639 29.4374 36.2941 27.746 37.3224 25.9928C37.3894 25.8143 37.3224 25.7696 37.2183 25.7399ZM80.9573 27.5549H82.9136C82.9136 27.5549 73.0872 41.7775 67.5306 41.1155C64.4361 40.751 65.3511 36.9275 65.3511 36.9275C65.3511 36.9275 60.9995 42.023 56.9975 40.989C53.3749 40.0592 55.7181 34.0265 55.7181 34.0265C55.3015 34.1901 47.4538 43.0346 41.9343 40.9146C36.162 38.683 39.1597 31.2742 40.2607 29.05C41.1905 27.1681 42.217 25.3382 42.217 25.3382C42.217 25.3382 41.3318 25.5911 40.7665 25.7176L39.3829 26.0151C39.3829 26.0151 36.6529 30.4485 34.9867 32.6652C33.313 34.8745 26.224 42.4842 22.0435 40.9741C17.863 39.4641 18.897 33.6099 21.2476 28.9608C25.0561 21.4329 34.0866 12.1793 39.5317 13.5777C45.0288 14.9836 40.4764 23.9025 40.4764 23.9025C40.4764 23.9025 41.5699 24.0439 44.1957 22.2512C47.9671 19.6774 52.9435 12.7521 58.3365 13.5703C60.8805 13.9497 63.2459 16.5457 60.0102 21.485C58.9762 23.0694 57.243 24.4827 55.9189 23.0843C55.0932 22.2065 55.8148 20.6296 56.6851 19.5361C57.024 19.0951 57.4654 18.7433 57.9709 18.5113C58.4764 18.2793 59.0308 18.174 59.5862 18.2046C59.5862 18.2046 60.4788 16.1738 58.21 16.2036C56.3727 16.2408 51.731 20.518 49.1126 24.8324C46.7099 28.7971 43.065 35.5514 46.7174 37.0242C50.0722 38.3781 56.4545 30.8056 59.4076 26.8333C62.3608 22.8686 69.0927 13.8753 74.746 13.5182C76.6875 13.3918 77.8479 15.1622 77.8479 15.1622L78.5025 14.1282H84.1484C84.1484 14.1282 73.5112 31.8842 72.6781 33.2231C72.0235 34.2719 71.1606 36.6449 73.5484 35.3134C75.9436 33.9893 80.9573 27.5549 80.9573 27.5549ZM77.8777 56.0001C73.7202 53.1186 68.7396 51.6646 63.6848 51.8568C62.3183 51.8945 60.9799 52.2536 59.778 52.9049C58.5761 53.5563 57.5446 54.4816 56.7669 55.6059C54.6097 51.8494 50.3548 49.5434 43.7717 49.5955C33.1345 49.7145 22.5791 54.624 14.2255 54.6165C6.21415 54.6165 0.367409 49.5806 0.560813 40.632C0.910427 24.9439 14.1735 10.8106 24.0668 4.45058C29.7722 0.805658 34.5478 -0.287811 37.6646 0.0618035C39.9408 0.314716 42.6782 2.94798 40.9524 6.82349C38.4159 12.4843 34.9123 12.0231 35.0388 9.31543C35.1131 7.55248 36.2884 6.44413 37.1662 5.82672C37.8046 5.49378 38.5141 5.32023 39.2341 5.3209C39.74 4.8969 40.1044 1.795 36.043 2.81409C31.9815 3.83318 27.0423 7.84258 22.3559 13.0124C17.6696 18.1897 10.3798 27.9715 8.57963 38.2442C7.73907 43.0049 8.28953 51.6932 19.5888 51.5965C29.1623 51.5221 43.2807 45.2067 56.2537 45.3406C60.7705 45.3228 65.2067 46.5366 69.0853 48.8516C72.4401 50.9196 76.4643 53.9396 77.8926 56.0001" fill="#ABB6BE"/>
</svg>
