<svg width="171" height="56" viewBox="0 0 171 56" fill="none" xmlns="http://www.w3.org/2000/svg">
<g clip-path="url(#clip0_294_135)">
<path d="M165.351 34.2241L170.085 37.3805C168.549 39.6438 164.873 43.5271 158.519 43.5271C150.628 43.5271 144.752 37.4221 144.752 29.6558C144.752 21.3915 150.691 15.7848 157.855 15.7848C165.06 15.7848 168.59 21.5158 169.732 24.6098L170.355 26.1881L151.791 33.8711C153.203 36.6538 155.405 38.0658 158.519 38.0658C161.634 38.0658 163.793 36.5291 165.351 34.2241ZM150.795 29.2201L163.191 24.0701C162.506 22.3468 160.471 21.1218 158.041 21.1218C154.948 21.1218 150.649 23.8628 150.795 29.2201Z" fill="#ABB6BE"/>
<path d="M135.802 1.6438H141.782V42.2605H135.802V1.6438Z" fill="#ABB6BE"/>
<path d="M126.375 16.8645H132.148V41.5335C132.148 51.7705 126.105 55.9858 118.962 55.9858C112.234 55.9858 108.185 51.4592 106.669 47.7838L111.964 45.5825C112.919 47.8458 115.224 50.5248 118.962 50.5248C123.551 50.5248 126.375 47.6798 126.375 42.3642V40.3708H126.167C124.797 42.0318 122.18 43.5268 118.858 43.5268C111.922 43.5268 105.568 37.4842 105.568 29.6975C105.568 21.8688 111.922 15.7642 118.858 15.7642C122.16 15.7642 124.797 17.2385 126.167 18.8582H126.375V16.8645ZM126.79 29.6975C126.79 24.7968 123.53 21.2252 119.377 21.2252C115.182 21.2252 111.652 24.7968 111.652 29.6975C111.652 34.5355 115.182 38.0448 119.377 38.0448C123.53 38.0658 126.79 34.5355 126.79 29.6975" fill="#ABB6BE"/>
<path d="M72.7386 29.5934C72.7386 37.5881 66.5092 43.4645 58.8676 43.4645C51.2262 43.4645 44.9966 37.5674 44.9966 29.5934C44.9966 21.5574 51.2262 15.7018 58.8676 15.7018C66.5092 15.7018 72.7386 21.5574 72.7386 29.5934ZM66.6752 29.5934C66.6752 24.6101 63.0619 21.1834 58.8676 21.1834C54.6732 21.1834 51.0599 24.6101 51.0599 29.5934C51.0599 34.5354 54.6732 38.0034 58.8676 38.0034C63.0622 38.0034 66.6752 34.5354 66.6752 29.5934Z" fill="#ABB6BE"/>
<path d="M103.035 29.6558C103.035 37.6505 96.8053 43.5268 89.164 43.5268C81.5223 43.5268 75.293 37.6501 75.293 29.6558C75.293 21.6198 81.5223 15.7848 89.164 15.7848C96.8053 15.7848 103.035 21.5991 103.035 29.6558ZM96.9506 29.6558C96.9506 24.6725 93.3376 21.2458 89.143 21.2458C84.9483 21.2458 81.3353 24.6725 81.3353 29.6558C81.3353 34.5978 84.9486 38.0658 89.143 38.0658C93.3583 38.0658 96.9506 34.5771 96.9506 29.6558Z" fill="#ABB6BE"/>
<path d="M22.1967 37.4428C13.496 37.4428 6.68538 30.4242 6.68538 21.7235C6.68538 13.0232 13.496 6.00452 22.1967 6.00452C26.8897 6.00452 30.3157 7.85252 32.849 10.2198L37.023 6.04618C33.493 2.66152 28.7794 0.0861816 22.1967 0.0861816C10.2777 0.086515 0.248047 9.80485 0.248047 21.7235C0.248047 33.6422 10.2777 43.3609 22.1967 43.3609C28.634 43.3609 33.493 41.2428 37.293 37.2975C41.1967 33.3935 42.401 27.9115 42.401 23.4678C42.401 22.0765 42.235 20.6439 42.048 19.5849H22.1967V25.3575H36.3377C35.9224 28.9708 34.7804 31.4418 33.0984 33.1235C31.0634 35.1795 27.845 37.4428 22.1967 37.4428Z" fill="#ABB6BE"/>
</g>
<defs>
<clipPath id="clip0_294_135">
<rect width="170.667" height="56" fill="white"/>
</clipPath>
</defs>
</svg>
