<svg width="249" height="240" viewBox="0 0 249 240" fill="none" xmlns="http://www.w3.org/2000/svg">
<g clip-path="url(#clip0_136_171)">
<path d="M81.0786 197.776C72.9695 197.776 66.3807 204.349 66.3807 212.468C66.3807 220.588 72.9561 227.161 81.0786 227.161C89.2012 227.161 95.7766 220.588 95.7766 212.468C95.7766 204.349 89.2012 197.776 81.0786 197.776ZM80.8519 218.761C77.8243 218.761 75.3702 216.308 75.3702 213.281C75.3702 210.255 77.8243 207.802 80.8519 207.802C83.8795 207.802 86.3336 210.255 86.3336 213.281C86.3336 216.308 83.8795 218.761 80.8519 218.761Z" fill="#F15D2A"/>
<path d="M81.0786 227.521C72.7694 227.521 66.0073 220.761 66.0073 212.455C66.0073 204.149 72.7694 197.389 81.0786 197.389C89.3879 197.389 96.15 204.149 96.15 212.455C96.15 220.761 89.3879 227.521 81.0786 227.521ZM81.0786 198.149C73.1828 198.149 66.7675 204.562 66.7675 212.455C66.7675 220.348 73.1828 226.761 81.0786 226.761C88.9744 226.761 95.3897 220.348 95.3897 212.455C95.3897 204.562 88.9744 198.149 81.0786 198.149ZM80.8519 219.134C77.6242 219.134 74.9967 216.508 74.9967 213.281C74.9967 210.055 77.6242 207.428 80.8519 207.428C84.0796 207.428 86.707 210.055 86.707 213.281C86.707 216.508 84.0796 219.134 80.8519 219.134ZM80.8519 208.188C78.0377 208.188 75.757 210.468 75.757 213.281C75.757 216.095 78.0377 218.375 80.8519 218.375C83.6661 218.375 85.9468 216.095 85.9468 213.281C85.9468 210.468 83.6661 208.188 80.8519 208.188Z" fill="#F15D2A"/>
<path d="M39.8257 113.687C39.8791 112.834 39.9591 111.98 40.0391 111.127C40.4259 107.207 41.0795 103.288 41.9731 99.4745C51.4827 59.1567 87.1205 31.0116 128.627 31.0116C177.722 31.0116 217.654 70.9294 217.654 120.007C217.654 169.084 177.722 209.002 128.627 209.002C124.959 209.002 121.264 208.775 117.65 208.335C109.167 207.308 101.405 213.335 100.365 221.828C99.3243 230.334 105.366 238.067 113.862 239.107C118.73 239.707 123.692 240 128.627 240C194.821 240 248.677 186.163 248.677 119.993C248.677 53.8237 194.834 0 128.64 0C72.676 0 24.6343 37.9712 11.8037 92.3549C10.3232 98.6212 9.34958 105.061 8.89611 111.514C8.77607 113.167 8.92278 114.78 9.30957 116.314C9.44294 116.834 9.58966 117.34 9.77638 117.847C9.77638 117.847 14.6712 105.981 24.3809 111.527C24.3809 111.527 28.4355 112.514 33.9839 118.953L39.8524 113.687H39.8257Z" fill="#F15D2A"/>
<path d="M63.1263 146.712H52.7364V123.926C52.7364 120.673 52.1629 118.3 51.0292 116.793C49.8955 115.3 48.3351 114.54 46.3744 114.54C44.4138 114.54 42.4399 115.327 40.6393 116.9C38.8254 118.473 37.5317 120.527 36.7581 123.06V146.698H26.3682V123.913C26.3682 120.66 25.808 118.287 24.701 116.78C23.5807 115.287 22.0469 114.527 20.0863 114.527C18.1256 114.527 16.1517 115.3 14.3111 116.847C12.4706 118.393 11.1635 120.433 10.3899 122.966V146.685H0V106.061H9.38959V113.58C10.8834 110.94 12.9374 108.914 15.5515 107.501C18.1657 106.074 21.1399 105.367 24.5143 105.367C27.8887 105.367 30.5428 106.194 32.3834 107.847C34.224 109.501 35.4244 111.54 35.9845 113.967C37.6384 111.18 39.7324 109.047 42.2665 107.567C44.8006 106.087 47.6949 105.354 50.9492 105.354C53.43 105.354 55.4706 105.821 57.0711 106.754C58.6716 107.687 59.912 108.901 60.7923 110.394C61.6725 111.887 62.2861 113.594 62.6195 115.514C62.9529 117.42 63.1263 119.367 63.1263 121.327V146.672V146.712Z" fill="white"/>
<path d="M86.1468 147.485C84.4396 147.485 82.6124 147.352 80.6385 147.098C78.6778 146.832 76.7439 146.499 74.8633 146.085C72.9827 145.672 71.1555 145.165 69.3949 144.579C67.6344 143.979 66.1139 143.325 64.8202 142.605L70.4753 132.606C73.3162 134.099 76.037 135.246 78.6112 136.019C81.1986 136.792 83.5994 137.179 85.8267 137.179C88.4142 137.179 89.7079 136.539 89.7079 135.246C89.7079 134.579 89.1878 133.979 88.1608 133.459C87.1205 132.939 85.1599 132.326 82.2656 131.606C79.3714 130.833 76.944 130.059 74.9834 129.286C73.0227 128.513 71.4489 127.646 70.2485 126.686C69.0615 125.726 68.2079 124.673 67.6878 123.513C67.1676 122.353 66.9142 120.993 66.9142 119.447C66.9142 117.38 67.341 115.474 68.1946 113.714C69.0482 111.954 70.2486 110.434 71.7957 109.141C73.3428 107.847 75.1968 106.861 77.3441 106.154C79.4914 105.461 81.8255 105.114 84.3596 105.114C87.1071 105.114 90.028 105.501 93.1623 106.274C96.2833 107.047 99.4843 108.181 102.739 109.687L97.0836 119.073C94.1893 117.727 91.7886 116.753 89.868 116.167C87.9474 115.567 86.1202 115.274 84.3596 115.274C83.2259 115.274 82.3056 115.447 81.6121 115.78C80.9185 116.114 80.5584 116.647 80.5584 117.367C80.5584 117.78 80.6651 118.127 80.8652 118.42C81.0653 118.713 81.4387 118.98 81.9589 119.233C82.479 119.487 83.1859 119.767 84.0929 120.047C84.9998 120.327 86.1202 120.633 87.4672 120.94C90.5749 121.713 93.1757 122.527 95.2963 123.38C97.417 124.233 99.1109 125.166 100.378 126.166C101.645 127.18 102.552 128.313 103.085 129.579C103.632 130.846 103.899 132.313 103.899 133.966C103.899 138.152 102.312 141.459 99.1242 143.885C95.9499 146.312 91.6152 147.525 86.1335 147.525L86.1468 147.485Z" fill="#F15D2A"/>
<path d="M125.853 147.485C122.185 147.485 118.97 146.899 116.196 145.739C113.435 144.579 111.101 143.032 109.221 141.086C107.34 139.139 105.913 136.899 104.953 134.339C103.992 131.779 103.512 129.113 103.512 126.313C103.512 123.513 103.992 120.847 104.953 118.287C105.913 115.727 107.327 113.487 109.221 111.541C111.115 109.594 113.435 108.047 116.196 106.887C118.957 105.727 122.185 105.141 125.853 105.141C129.52 105.141 132.681 105.727 135.469 106.887C138.256 108.047 140.59 109.594 142.484 111.541C144.378 113.487 145.792 115.727 146.752 118.287C147.713 120.847 148.193 123.513 148.193 126.313C148.193 129.113 147.713 131.779 146.752 134.339C145.792 136.899 144.378 139.139 142.484 141.086C140.604 143.019 138.256 144.579 135.469 145.739C132.681 146.899 129.467 147.485 125.853 147.485ZM118.637 126.326C118.637 129.073 119.304 131.206 120.651 132.766C121.998 134.313 123.732 135.086 125.839 135.086C127.947 135.086 129.694 134.313 131.028 132.766C132.361 131.219 133.041 129.073 133.041 126.326C133.041 123.58 132.375 121.447 131.028 119.887C129.68 118.34 127.947 117.567 125.839 117.567C123.732 117.567 121.985 118.34 120.651 119.887C119.304 121.433 118.637 123.58 118.637 126.326Z" fill="#F15D2A"/>
<path d="M153.074 146.712V121.753H148.033V110.674H153.074V106.261C153.074 103.728 153.434 101.421 154.155 99.3144C154.875 97.2212 155.889 95.4347 157.182 93.9681C158.476 92.5015 160.037 91.3549 161.877 90.5549C163.718 89.755 165.772 89.355 168.039 89.355C171.453 89.355 175.228 90.1283 179.363 91.6749L176.882 102.834C176.001 102.528 175.055 102.274 174.054 102.061C173.041 101.861 172.147 101.754 171.373 101.754C168.999 101.754 167.812 103.074 167.812 105.701V110.66H176.735V121.74H167.812V146.698H153.074V146.712Z" fill="#F15D2A"/>
<path d="M207.358 144.459C205.291 145.339 203.077 146.072 200.729 146.672C198.382 147.272 196.061 147.565 193.794 147.565C192.14 147.565 190.566 147.365 189.059 146.952C187.552 146.539 186.258 145.859 185.138 144.939C184.031 144.005 183.15 142.792 182.497 141.299C181.857 139.806 181.523 137.939 181.523 135.713V121.767H176.482V110.687H181.523V93.1682H196.261V110.687H204.25V121.767H196.261V130.526C196.261 131.873 196.541 132.819 197.115 133.353C197.688 133.886 198.462 134.166 199.435 134.166C200.156 134.166 200.983 134.046 201.916 133.819C202.85 133.593 203.783 133.259 204.704 132.846L207.345 144.472L207.358 144.459Z" fill="#F15D2A"/>
</g>
<defs>
<clipPath id="clip0_136_171">
<rect width="248.691" height="240" fill="white"/>
</clipPath>
</defs>
</svg>
