<svg width="257" height="56" viewBox="0 0 257 56" fill="none" xmlns="http://www.w3.org/2000/svg">
<path d="M26.057 29.3854V56.0001H0.0400391V29.3854H26.057ZM54.7937 29.3854V56.0001H28.7716V29.3854H54.7937ZM240.007 8.75274C241.047 8.75274 241.919 8.8437 242.624 9.02561L243.219 9.21452V14.0736L243.014 13.9791C242.248 13.6218 241.418 13.4289 240.577 13.4124C239.472 13.4159 238.616 13.7745 238.011 14.4881C237.504 15.0898 237.207 15.9329 237.118 17.0174L237.092 17.6943V20.722H245.4V15.2857L250.953 13.5489V20.722H256.556V25.3344H250.953V36.6845C250.953 38.1468 251.206 39.1788 251.712 39.7805C252.215 40.3682 253.009 40.662 254.093 40.662C254.469 40.6513 254.842 40.5878 255.201 40.4731C255.474 40.3926 255.741 40.2891 255.997 40.1635L256.325 39.9694L256.556 39.812V44.4716L256.479 44.5136C255.93 44.7804 255.349 44.9693 254.75 45.0751C253.929 45.257 253.137 45.3479 252.374 45.3479C248.012 45.3479 245.682 43.0653 245.421 38.5526L245.4 37.6815V25.3344H237.092V44.7655H231.494V25.3344H227.594V20.7168H231.494V17.3899C231.494 15.7143 231.851 14.217 232.566 12.8982C233.288 11.5828 234.297 10.5631 235.594 9.83895C236.887 9.12006 238.375 8.75274 240.007 8.75274ZM215.334 20.1395C218.988 20.1395 221.887 21.252 223.945 23.4454C226.008 25.6388 227.05 28.6875 227.05 32.5129C227.05 36.3854 225.936 39.5234 223.74 41.8479C221.549 44.1673 218.526 45.3479 214.77 45.3479C211.162 45.3479 208.248 44.2303 206.103 42.0211C203.963 39.8172 202.875 36.7842 202.875 33.0219C202.875 29.0601 203.989 25.8854 206.185 23.5923C208.381 21.2992 211.46 20.1395 215.334 20.1395ZM193.849 20.1395C194.659 20.1395 195.578 20.2375 196.604 20.4334C197.374 20.5768 198.041 20.7483 198.606 20.9477L199.211 21.189V26.4207L198.98 26.258C198.215 25.7427 197.38 25.3466 196.502 25.0826C195.582 24.7915 194.626 24.6412 193.664 24.6366C192.655 24.6366 191.861 24.8657 191.283 25.324C191.017 25.5198 190.801 25.7777 190.653 26.0762C190.505 26.3747 190.429 26.7051 190.431 27.0399C190.431 27.8305 190.653 28.4479 191.098 28.8922C191.303 29.0881 191.621 29.3085 192.053 29.5533L193.079 30.0781L193.715 30.3562L194.423 30.6553C196.62 31.5648 198.173 32.5776 199.083 33.6935C199.996 34.8112 200.458 36.2018 200.458 37.8232C200.458 40.0691 199.601 41.9057 197.908 43.2857C196.224 44.65 193.92 45.3479 191.057 45.3479C190.133 45.3479 189.061 45.222 187.886 44.9701C187.091 44.8111 186.311 44.5883 185.551 44.3037L184.832 43.9941V38.4844L185.063 38.6523C186.021 39.3519 187.066 39.8942 188.199 40.279C189.331 40.6568 190.352 40.8474 191.262 40.8509C193.695 40.8509 194.88 40.0638 194.88 38.4476C194.902 37.9671 194.781 37.4911 194.531 37.0833C194.187 36.6544 193.763 36.2995 193.284 36.0391L192.884 35.8135L191.827 35.294L190.457 34.6905C188.934 34.0224 187.798 33.3734 187.049 32.7437C186.326 32.1453 185.752 31.379 185.376 30.5084C184.994 29.5643 184.809 28.5492 184.832 27.5279C184.832 25.3554 185.684 23.5608 187.362 22.1913C189.025 20.827 191.211 20.1448 193.849 20.1448M170.485 20.1448C174.138 20.1448 177.032 21.2572 179.095 23.4506C181.158 25.644 182.195 28.6928 182.195 32.5181C182.195 36.3907 181.086 39.5286 178.89 41.8532C176.694 44.1778 173.676 45.3532 169.915 45.3532C166.308 45.3532 163.398 44.2355 161.253 42.0264C159.108 39.8225 158.02 36.7947 158.02 33.0271C158.02 29.0653 159.139 25.8907 161.33 23.5976C163.521 21.3045 166.605 20.1448 170.485 20.1448ZM134.086 20.1448C135.079 20.1448 136.108 20.2585 137.176 20.4859C137.98 20.6538 138.66 20.8637 139.218 21.1156L139.808 21.4147V26.8719L139.577 26.704C137.904 25.4604 136.129 24.8307 134.312 24.8307C132.188 24.8307 130.443 25.5653 129.129 27.0189C127.805 28.4776 127.133 30.4506 127.133 32.8854C127.133 35.3097 127.775 37.2355 129.042 38.6051C130.315 39.9799 132.042 40.669 134.225 40.6725C135.008 40.6725 135.891 40.4976 136.873 40.1478C137.523 39.9134 138.142 39.6213 138.731 39.2715L139.577 38.7048L139.808 38.5316V43.7108L139.736 43.7527C137.94 44.8127 135.693 45.3532 133.065 45.3532C130.957 45.3885 128.876 44.87 127.02 43.8472C125.267 42.8583 123.829 41.3735 122.879 39.5706C121.874 37.6708 121.363 35.5386 121.396 33.3787C121.396 30.7812 121.909 28.4566 122.92 26.4626C123.936 24.4686 125.43 22.8944 127.359 21.7977C129.283 20.701 131.551 20.1448 134.086 20.1448ZM155.403 20.3075C156.094 20.3075 156.676 20.3704 157.148 20.4964L157.661 20.6853V26.3892L157.425 26.216C157.028 25.964 156.593 25.783 156.137 25.6808C155.595 25.5255 155.037 25.4409 154.474 25.4289C153.767 25.4182 153.068 25.59 152.443 25.9285C151.818 26.2669 151.286 26.761 150.897 27.3652C150.111 28.4846 149.661 29.8962 149.548 31.5998L149.517 32.4709V44.7707H143.985V20.7273H149.517V24.8884H149.574C150.092 23.5399 150.769 22.4536 151.703 21.6665C152.774 20.7605 154.007 20.3075 155.403 20.3075ZM117.583 20.7273V44.7707H112.052V20.7273H117.583ZM79.3379 11.219L88.975 36.1441L98.9046 11.219H106.715V44.7707H101.07V18.9536H100.89L90.8737 44.7707H86.8711L76.6901 18.9536H76.5105V44.7707H71.2044V11.219H79.3379ZM215.037 24.8307C213.035 24.8307 211.445 25.5286 210.316 26.9087C209.182 28.2992 208.607 30.2932 208.607 32.8382C208.607 35.322 209.177 37.2495 210.316 38.6208C211.445 39.9851 213.051 40.6673 215.083 40.6673C217.125 40.6673 218.69 39.9956 219.732 38.6628C220.779 37.3195 221.308 35.315 221.308 32.7018C221.308 30.1253 220.743 28.1418 219.629 26.8195C218.526 25.4971 216.976 24.8307 215.037 24.8307ZM170.187 24.8255C168.186 24.8255 166.595 25.5234 165.466 26.9034C164.332 28.294 163.752 30.288 163.752 32.833C163.752 35.3167 164.323 37.2442 165.466 38.6156C166.602 39.9799 168.189 40.662 170.228 40.662C172.281 40.662 173.83 39.9939 174.877 38.6575C175.924 37.3142 176.458 35.3097 176.458 32.6965C176.458 30.1201 175.893 28.1366 174.78 26.8142C173.664 25.4884 172.132 24.8237 170.182 24.8202M26.057 0.00012207V26.6096H0.0400391V0.00012207H26.057ZM54.7886 0.00012207V26.6096H28.7716V0.00012207H54.7886ZM114.874 10.4739C115.835 10.4774 116.638 10.801 117.281 11.4446C117.59 11.7447 117.835 12.1072 118 12.5092C118.165 12.9111 118.247 13.3438 118.24 13.7797C118.249 14.2151 118.166 14.6473 117.995 15.0461C117.824 15.4449 117.569 15.8007 117.25 16.0886C116.602 16.6955 115.752 17.0259 114.874 17.0121C113.999 17.03 113.151 16.701 112.508 16.0938C112.194 15.8017 111.944 15.444 111.776 15.0448C111.607 14.6456 111.525 14.2143 111.533 13.7797C111.533 12.8422 111.862 12.0551 112.519 11.4184C113.152 10.7995 113.998 10.4602 114.874 10.4739Z" fill="#ABB6BE"/>
</svg>
