<svg width="52" height="52" viewBox="0 0 52 52" fill="none" xmlns="http://www.w3.org/2000/svg">
<path d="M20.6667 7.33333L26 2M15.3333 36.6667L36.6667 15.3333M26 50L31.3333 44.6667M38 44.6667C39.7681 44.6667 41.4638 43.9643 42.714 42.714C43.9643 41.4638 44.6667 39.7681 44.6667 38C44.6667 36.2319 43.9643 34.5362 42.714 33.286C41.4638 32.0357 39.7681 31.3333 38 31.3333C36.2319 31.3333 34.5362 32.0357 33.286 33.286C32.0357 34.5362 31.3333 36.2319 31.3333 38C31.3333 39.7681 32.0357 41.4638 33.286 42.714C34.5362 43.9643 36.2319 44.6667 38 44.6667ZM14 20.6667C15.7681 20.6667 17.4638 19.9643 18.714 18.714C19.9643 17.4638 20.6667 15.7681 20.6667 14C20.6667 12.2319 19.9643 10.5362 18.714 9.28596C17.4638 8.03571 15.7681 7.33333 14 7.33333C12.2319 7.33333 10.5362 8.03571 9.28596 9.28596C8.03571 10.5362 7.33333 12.2319 7.33333 14C7.33333 15.7681 8.03571 17.4638 9.28596 18.714C10.5362 19.9643 12.2319 20.6667 14 20.6667ZM8.66667 50C10.4348 50 12.1305 49.2976 13.3807 48.0474C14.631 46.7971 15.3333 45.1014 15.3333 43.3333C15.3333 41.5652 14.631 39.8695 13.3807 38.6193C12.1305 37.369 10.4348 36.6667 8.66667 36.6667C6.89856 36.6667 5.20286 37.369 3.95262 38.6193C2.70238 39.8695 2 41.5652 2 43.3333C2 45.1014 2.70238 46.7971 3.95262 48.0474C5.20286 49.2976 6.89856 50 8.66667 50ZM43.3333 15.3333C45.1014 15.3333 46.7971 14.631 48.0474 13.3807C49.2976 12.1305 50 10.4348 50 8.66667C50 6.89856 49.2976 5.20286 48.0474 3.95262C46.7971 2.70238 45.1014 2 43.3333 2C41.5652 2 39.8695 2.70238 38.6193 3.95262C37.369 5.20286 36.6667 6.89856 36.6667 8.66667C36.6667 10.4348 37.369 12.1305 38.6193 13.3807C39.8695 14.631 41.5652 15.3333 43.3333 15.3333Z" stroke="url(#paint0_linear_303_552)" stroke-width="3" stroke-linecap="round" stroke-linejoin="round"/>
<defs>
<linearGradient id="paint0_linear_303_552" x1="9.47541" y1="65.6" x2="56.1667" y2="61.5045" gradientUnits="userSpaceOnUse">
<stop stop-color="#F15D2A"/>
<stop offset="1" stop-color="#F59C49"/>
</linearGradient>
</defs>
</svg>
