<svg width="62" height="64" viewBox="0 0 62 64" fill="none" xmlns="http://www.w3.org/2000/svg">
<path d="M26.0627 11.7486H22.9221C22.1496 11.7505 21.3956 11.986 20.7593 12.4241C20.1229 12.8622 19.6339 13.4824 19.3564 14.2035L17.7107 18.4549L12.0421 21.6686L7.52556 20.9829C6.77315 20.8805 6.00728 21.0039 5.3252 21.3377C4.64311 21.6714 4.07559 22.2003 3.6947 22.8572L2.16327 25.5406C1.77154 26.208 1.59113 26.9784 1.6458 27.7504C1.70048 28.5223 1.98767 29.2596 2.46956 29.8652L5.34042 33.4309V39.8629L2.54727 43.4286C2.06538 44.0341 1.77819 44.7714 1.72352 45.5434C1.66885 46.3153 1.84925 47.0858 2.24099 47.7532L3.77242 50.432C4.15267 51.0898 4.71992 51.6196 5.40205 51.9542C6.08419 52.2887 6.85039 52.4129 7.60327 52.3109L12.1198 51.6252L17.7107 54.8389L19.3564 59.0903C19.6346 59.8105 20.124 60.4298 20.7603 60.867C21.3965 61.3043 22.1501 61.539 22.9221 61.5406H26.1404C26.9117 61.5381 27.6642 61.3029 28.2996 60.8657C28.935 60.4285 29.4236 59.8097 29.7016 59.0903L31.3473 54.8389L36.9381 51.6206L41.4593 52.3109C42.2117 52.4133 42.9776 52.2898 43.6596 51.9561C44.3417 51.6224 44.9092 51.0935 45.2901 50.4366L46.8216 47.7532C47.2143 47.0853 47.3953 46.3139 47.3406 45.541C47.2859 44.7681 46.9981 44.03 46.5153 43.424L43.6398 39.8629V35.7166M16.833 36.6446C16.808 37.6662 16.9877 38.6825 17.3614 39.6336C17.7351 40.5847 18.2953 41.4515 19.009 42.1828C19.7227 42.9142 20.5755 43.4954 21.5172 43.8922C22.4589 44.289 23.4705 44.4934 24.4924 44.4934C25.5143 44.4934 26.5259 44.289 27.4676 43.8922C28.4093 43.4954 29.2621 42.9142 29.9758 42.1828C30.6895 41.4515 31.2497 40.5847 31.6234 39.6336C31.9971 38.6825 32.1768 37.6662 32.1518 36.6446C32.103 34.6456 31.2746 32.7449 29.8435 31.3483C28.4124 29.9518 26.492 29.17 24.4924 29.17C22.4928 29.17 20.5724 29.9518 19.1413 31.3483C17.7102 32.7449 16.8818 34.6456 16.833 36.6446ZM36.0284 16.192C34.6296 15.9497 34.6296 13.9337 36.0284 13.6915C38.5166 13.2599 40.8196 12.0965 42.6435 10.3499C44.4674 8.60337 45.7295 6.35286 46.2684 3.88575L46.3507 3.49718C46.657 2.11203 48.6318 2.10289 48.9473 3.48803L49.0524 3.93603C49.6117 6.39016 50.8838 8.62423 52.709 10.3575C54.5342 12.0908 56.831 13.2459 59.3107 13.6777C60.7233 13.9246 60.7233 15.9497 59.3107 16.192C56.831 16.6239 54.5342 17.779 52.709 19.5123C50.8838 21.2455 49.6117 23.4796 49.0524 25.9337L48.9473 26.3863C48.6318 27.7715 46.657 27.7577 46.3507 26.3726L46.2684 25.9886C45.7293 23.5236 44.4683 21.275 42.6462 19.5294C40.8241 17.7838 38.5234 16.6204 36.0376 16.1875L36.0284 16.192Z" stroke="url(#paint0_linear_303_547)" stroke-width="3" stroke-linecap="round" stroke-linejoin="round"/>
<defs>
<linearGradient id="paint0_linear_303_547" x1="10.7833" y1="80.7438" x2="67.9211" y2="75.7619" gradientUnits="userSpaceOnUse">
<stop stop-color="#F15D2A"/>
<stop offset="1" stop-color="#F59C49"/>
</linearGradient>
</defs>
</svg>
