<svg width="125" height="40" viewBox="0 0 125 40" fill="none" xmlns="http://www.w3.org/2000/svg">
<path d="M64.4725 12.7365C64.4022 18.2864 69.4186 21.3832 73.1974 23.2247C77.0798 25.1138 78.3839 26.3254 78.3684 28.015C78.3395 30.6006 75.2716 31.7418 72.4007 31.7861C67.3921 31.8637 64.4798 30.4338 62.1646 29.3524L60.3602 37.7953C62.6831 38.8656 66.9843 39.7991 71.4446 39.8401C81.9145 39.8401 88.7641 34.6719 88.8012 26.6589C88.8422 16.4892 74.7347 15.9264 74.8311 11.3808C74.8643 10.0025 76.1795 8.53165 79.0615 8.15768C80.488 7.96876 84.4258 7.82418 88.8904 9.88009L90.6427 1.71141C88.2417 0.837196 85.1559 8.7738e-05 81.314 8.7738e-05C71.4595 8.7738e-05 64.5284 5.23864 64.4725 12.7365ZM107.48 0.703701C105.568 0.703701 103.957 1.81888 103.238 3.5302L88.2827 39.2401H98.7448L100.827 33.4864H113.611L114.819 39.2401H124.04L115.993 0.703701H107.48ZM108.944 11.1138L111.963 25.5847H103.694L108.944 11.1138ZM51.7877 0.704182L43.541 39.2396H53.5106L61.7535 0.70322L51.7877 0.704182ZM37.0393 0.704182L26.6624 26.9331L22.4648 4.63093C21.9723 2.14129 20.0272 0.703701 17.8672 0.703701H0.904338L0.666748 1.82274C4.14916 2.5784 8.10578 3.7972 10.5029 5.10129C11.9699 5.89792 12.3882 6.5943 12.8701 8.48732L20.8205 39.2401H31.3559L47.5082 0.703701L37.0393 0.704182Z" fill="#ABB6BE"/>
</svg>
