<?xml version="1.0" encoding="UTF-8"?>
<svg xmlns="http://www.w3.org/2000/svg" xmlns:xlink="http://www.w3.org/1999/xlink" width="150px" height="150px" viewBox="0 0 150 55" version="1.1">
<g id="surface1">
<path style=" stroke:none;fill-rule:nonzero;fill:rgb(67.058825%,71.372551%,74.509805%);fill-opacity:1;" d="M 54.675781 9.539062 C 60.523438 17.367188 67.5 27.152344 67.5 27.5 C 67.5 27.648438 66.5 29.257812 65.273438 31.042969 L 63.074219 34.3125 L 64.351562 36.246094 L 65.648438 38.152344 L 67.875 35.054688 C 69.125 33.347656 70.875 30.992188 71.800781 29.777344 L 73.476562 27.625 L 72.375 26.0625 C 71.773438 25.222656 69.476562 22.074219 67.25 19.078125 C 65.050781 16.078125 61.675781 11.445312 59.773438 8.796875 L 56.351562 3.964844 L 50.5 3.964844 Z M 54.675781 9.539062 "/>
<path style=" stroke:none;fill-rule:nonzero;fill:rgb(67.058825%,71.372551%,74.509805%);fill-opacity:1;" d="M 65.25 7.210938 L 62.898438 10.453125 L 64.273438 12.414062 C 65.949219 14.839844 65.300781 15.210938 69.449219 9.390625 C 73.699219 3.417969 73.601562 3.964844 70.300781 3.964844 L 67.601562 3.964844 Z M 65.25 7.210938 "/>
<path style=" stroke:none;fill-rule:nonzero;fill:rgb(67.058825%,71.372551%,74.509805%);fill-opacity:1;" d="M 54.699219 21.652344 C 52.800781 24.277344 51.074219 26.707031 50.875 27.054688 C 50.5 27.648438 52.550781 30.570312 65.125 47.691406 L 67.601562 51.035156 L 70.300781 51.035156 C 71.773438 51.035156 73 50.9375 73 50.8125 C 73 50.640625 65.574219 40.359375 58.476562 30.746094 L 56.125 27.550781 L 58.550781 24.105469 C 60.023438 22.023438 60.824219 20.4375 60.601562 20.117188 C 60.375 19.820312 59.726562 18.976562 59.148438 18.234375 L 58.125 16.871094 Z M 54.699219 21.652344 "/>
<path style=" stroke:none;fill-rule:nonzero;fill:rgb(67.058825%,71.372551%,74.509805%);fill-opacity:1;" d="M 19.5 33.496094 C 16.875 39.640625 14.675781 44.890625 14.574219 45.140625 C 14.5 45.386719 15.648438 45.585938 17.125 45.585938 C 19.773438 45.585938 19.875 45.535156 20.324219 43.976562 L 20.773438 42.363281 L 26.199219 42.316406 L 31.601562 42.265625 L 32.300781 43.925781 C 32.976562 45.511719 33.148438 45.585938 35.574219 45.585938 C 38.625 45.585938 38.925781 46.972656 32.976562 33.074219 L 28.375 22.296875 L 24.226562 22.296875 Z M 28.175781 33.273438 C 28.898438 35.355469 29.5 37.210938 29.5 37.359375 C 29.5 37.535156 28.023438 37.65625 26.199219 37.65625 C 23.523438 37.65625 22.949219 37.535156 23.175781 36.9375 C 23.324219 36.542969 24.050781 34.535156 24.800781 32.453125 C 26.351562 28.144531 26.375 28.167969 28.175781 33.273438 Z M 28.175781 33.273438 "/>
<path style=" stroke:none;fill-rule:nonzero;fill:rgb(67.058825%,71.372551%,74.509805%);fill-opacity:1;" d="M 87 33.917969 L 87 45.585938 L 104.5 45.585938 L 104.5 41.621094 L 91.449219 41.621094 L 91.523438 32.082031 L 91.625 22.546875 L 89.324219 22.394531 L 87 22.246094 Z M 87 33.917969 "/>
<path style=" stroke:none;fill-rule:nonzero;fill:rgb(67.058825%,71.372551%,74.509805%);fill-opacity:1;" d="M 118.5 33.941406 L 118.5 45.585938 L 135.75 45.585938 L 135.75 41.621094 L 122.449219 41.621094 L 122.601562 38.796875 L 122.75 35.972656 L 127.625 36.097656 L 132.5 36.246094 L 132.5 31.710938 L 123 31.710938 L 123 26.261719 L 135.773438 26.261719 L 135.574219 24.277344 L 135.398438 22.296875 L 118.5 22.296875 Z M 118.5 33.941406 "/>
<path style=" stroke:none;fill-rule:nonzero;fill:rgb(67.058825%,71.372551%,74.509805%);fill-opacity:1;" d="M 54.148438 46.082031 L 50.550781 51.035156 L 56.476562 51.035156 L 58.699219 47.742188 L 60.949219 44.445312 L 59.648438 42.785156 C 57.976562 40.605469 58.25 40.433594 54.148438 46.082031 Z M 54.148438 46.082031 "/>
</g>
</svg>
