<?xml version="1.0" encoding="UTF-8"?>
<svg xmlns="http://www.w3.org/2000/svg" xmlns:xlink="http://www.w3.org/1999/xlink" width="150px" height="150px" viewBox="0 0 150 150" version="1.1">
<g id="surface1">
<path style=" stroke:none;fill-rule:nonzero;fill:rgb(67.058825%,71.372551%,74.509805%);fill-opacity:1;" d="M 31.5 37.050781 C 31.5 37.6875 33.488281 42.601562 35.925781 47.960938 C 40.6875 58.460938 40.726562 58.914062 36.863281 55.5 C 34.460938 53.398438 32.4375 53.136719 33.261719 55.011719 C 33.488281 55.5 36.488281 62.625 39.976562 70.875 L 46.273438 85.875 L 57.261719 86.101562 C 63.300781 86.210938 68.25 86.023438 68.25 85.6875 C 68.25 83.699219 63.636719 82.5 56.101562 82.5 L 48.335938 82.5 L 44.023438 72.261719 C 41.625 66.675781 39.898438 61.875 40.125 61.648438 C 41.0625 60.710938 43.574219 64.5 46.6875 71.625 C 49.613281 78.261719 50.210938 79.164062 52.011719 79.351562 L 54.074219 79.613281 L 51.414062 74.324219 C 48.226562 67.949219 48.074219 66.863281 50.8125 68.960938 C 51.9375 69.824219 58.6875 74.664062 65.8125 79.726562 L 78.75 88.875 L 63.335938 89.0625 C 49.164062 89.25 47.925781 89.398438 48.148438 90.5625 C 48.375 91.761719 50.699219 91.875 79.761719 92.0625 C 99.300781 92.175781 111.039062 91.988281 110.886719 91.539062 C 110.738281 91.164062 95.960938 80.664062 78 68.210938 C 60.074219 55.761719 42.261719 43.386719 38.4375 40.761719 C 33.898438 37.613281 31.5 36.300781 31.5 37.050781 Z M 45.601562 49.6875 C 49.199219 52.273438 63.375 62.136719 77.136719 71.625 L 102.113281 88.875 L 93.414062 89.101562 L 84.675781 89.289062 L 71.773438 80.023438 C 64.6875 74.925781 55.949219 68.773438 52.351562 66.375 L 45.863281 61.949219 L 42.226562 54.113281 C 37.875 44.625 38.023438 45 38.585938 45 C 38.851562 45 42 47.101562 45.601562 49.6875 Z M 45.601562 49.6875 "/>
<path style=" stroke:none;fill-rule:nonzero;fill:rgb(67.058825%,71.372551%,74.509805%);fill-opacity:1;" d="M 22.5 103.5 C 21.5625 104.4375 21 106.011719 21 107.625 C 21 112.539062 26.511719 115.164062 29.625 111.75 C 31.351562 109.835938 30.5625 108.9375 28.238281 110.210938 C 25.125 111.863281 23.625 111 23.625 107.625 C 23.625 104.25 25.125 103.386719 28.238281 105.039062 C 30.5625 106.3125 31.351562 105.414062 29.625 103.5 C 27.898438 101.585938 24.414062 101.585938 22.5 103.5 Z M 22.5 103.5 "/>
<path style=" stroke:none;fill-rule:nonzero;fill:rgb(67.058825%,71.372551%,74.509805%);fill-opacity:1;" d="M 33.675781 107.585938 C 31.949219 112.6875 31.875 113.25 33.039062 113.25 C 33.75 113.25 34.5 112.574219 34.726562 111.75 C 34.988281 110.738281 35.738281 110.25 37.011719 110.25 C 38.25 110.25 39.074219 110.773438 39.375 111.75 C 39.636719 112.574219 40.351562 113.25 40.914062 113.25 C 42.261719 113.25 42.335938 113.699219 40.199219 107.550781 C 37.613281 100.199219 36.226562 100.238281 33.675781 107.585938 Z M 37.949219 108.5625 C 36.789062 109.726562 35.476562 108.226562 36.148438 106.5 L 36.898438 104.625 L 37.574219 106.425781 C 37.988281 107.398438 38.136719 108.375 37.949219 108.5625 Z M 37.949219 108.5625 "/>
<path style=" stroke:none;fill-rule:nonzero;fill:rgb(67.058825%,71.372551%,74.509805%);fill-opacity:1;" d="M 43.5 107.625 C 43.5 112.125 43.726562 113.25 44.625 113.25 C 45.375 113.25 45.75 112.5 45.75 111 C 45.75 108.113281 46.949219 108.113281 48.601562 111 C 50.550781 114.449219 52.460938 114.148438 50.886719 110.625 C 50.210938 109.164062 50.210938 108.488281 50.886719 107.8125 C 53.511719 105.1875 50.960938 102 46.164062 102 L 43.5 102 Z M 49.5 105.75 C 49.5 106.835938 49.011719 107.25 47.625 107.25 C 46.238281 107.25 45.75 106.835938 45.75 105.75 C 45.75 104.664062 46.238281 104.25 47.625 104.25 C 49.011719 104.25 49.5 104.664062 49.5 105.75 Z M 49.5 105.75 "/>
<path style=" stroke:none;fill-rule:nonzero;fill:rgb(67.058825%,71.372551%,74.509805%);fill-opacity:1;" d="M 56.664062 102.898438 C 56.476562 103.425781 55.613281 105.710938 54.789062 108 C 53.925781 110.25 53.25 112.386719 53.25 112.6875 C 53.25 113.925781 55.425781 113.136719 55.875 111.75 C 56.175781 110.773438 57 110.25 58.238281 110.25 C 59.511719 110.25 60.261719 110.738281 60.523438 111.75 C 60.898438 113.136719 63 113.960938 63 112.6875 C 62.886719 108.1875 57.636719 100.050781 56.664062 102.898438 Z M 59.25 107.8125 C 59.25 108.335938 58.761719 108.75 58.125 108.75 C 56.886719 108.75 56.738281 108.074219 57.488281 106.125 C 58.011719 104.773438 59.210938 105.9375 59.25 107.8125 Z M 59.25 107.8125 "/>
<path style=" stroke:none;fill-rule:nonzero;fill:rgb(67.058825%,71.372551%,74.509805%);fill-opacity:1;" d="M 63 102.261719 C 63 104.398438 67.164062 113.25 68.136719 113.25 C 69.261719 113.25 72.75 105.300781 72.75 102.789062 C 72.75 100.351562 70.574219 102.601562 69.375 106.3125 L 67.988281 110.625 L 66.710938 106.5 C 65.699219 103.199219 63 100.125 63 102.261719 Z M 63 102.261719 "/>
<path style=" stroke:none;fill-rule:nonzero;fill:rgb(67.058825%,71.372551%,74.509805%);fill-opacity:1;" d="M 75 107.585938 L 75 113.25 L 78.824219 113.25 C 83.0625 113.25 83.773438 111.5625 79.6875 111.148438 C 76.273438 110.8125 75.824219 108.75 79.164062 108.75 C 80.960938 108.75 81.75 108.414062 81.75 107.625 C 81.75 106.835938 80.960938 106.5 79.164062 106.5 C 75.789062 106.5 76.273438 104.4375 79.761719 104.101562 C 83.398438 103.761719 82.574219 102.414062 78.5625 102.148438 L 75 101.925781 Z M 75 107.585938 "/>
<path style=" stroke:none;fill-rule:nonzero;fill:rgb(67.058825%,71.372551%,74.509805%);fill-opacity:1;" d="M 84 107.625 L 84 113.25 L 87.824219 113.25 C 92.101562 113.25 92.773438 111.5625 88.613281 111.148438 C 86.25 110.886719 86.25 110.886719 86.25 106.460938 C 86.25 103.011719 85.988281 102 85.125 102 C 84.226562 102 84 103.125 84 107.625 Z M 84 107.625 "/>
<path style=" stroke:none;fill-rule:nonzero;fill:rgb(67.058825%,71.372551%,74.509805%);fill-opacity:1;" d="M 93 107.625 L 93 113.25 L 96.375 113.25 C 98.25 113.25 99.75 112.914062 99.75 112.5 C 99.75 112.085938 98.585938 111.75 97.125 111.75 L 94.5 111.75 L 94.5 106.875 C 94.5 104.136719 94.164062 102 93.75 102 C 93.300781 102 93 104.363281 93 107.625 Z M 93 107.625 "/>
<path style=" stroke:none;fill-rule:nonzero;fill:rgb(67.058825%,71.372551%,74.509805%);fill-opacity:1;" d="M 105.113281 103.613281 C 104.738281 104.585938 103.875 106.6875 103.199219 108.261719 C 102.5625 109.875 102 111.636719 102 112.199219 C 102 113.773438 103.351562 113.4375 103.875 111.75 C 104.210938 110.699219 105 110.25 106.5 110.25 C 108 110.25 108.789062 110.699219 109.125 111.75 C 109.386719 112.574219 109.949219 113.25 110.363281 113.25 C 110.773438 113.25 110.886719 112.539062 110.550781 111.5625 C 107.550781 102 106.351562 100.3125 105.113281 103.613281 Z M 107.550781 106.949219 C 108.1875 108.675781 108.148438 108.75 106.5 108.75 C 105.675781 108.75 105 108.601562 105 108.449219 C 105 107.511719 105.976562 105.75 106.5 105.75 C 106.835938 105.75 107.289062 106.273438 107.550781 106.949219 Z M 107.550781 106.949219 "/>
<path style=" stroke:none;fill-rule:nonzero;fill:rgb(67.058825%,71.372551%,74.509805%);fill-opacity:1;" d="M 113.101562 102.5625 C 112.949219 102.863281 112.875 104.476562 112.949219 106.125 C 113.023438 107.773438 113.136719 110.0625 113.175781 111.226562 C 113.25 113.210938 113.398438 113.324219 116.363281 113.101562 C 120 112.835938 121.613281 111.074219 120.261719 108.863281 C 119.699219 108.039062 119.664062 107.101562 120.074219 106.425781 C 120.976562 104.960938 120.9375 104.511719 119.585938 103.164062 C 118.386719 102 113.550781 101.511719 113.101562 102.5625 Z M 118.5 105 C 118.5 106.085938 118.011719 106.5 116.625 106.5 C 115.238281 106.5 114.75 106.085938 114.75 105 C 114.75 103.914062 115.238281 103.5 116.625 103.5 C 118.011719 103.5 118.5 103.914062 118.5 105 Z M 118.425781 108.675781 C 120 109.6875 118.800781 111.75 116.664062 111.75 C 115.125 111.75 114.75 111.375 114.75 109.875 C 114.75 107.925781 116.363281 107.398438 118.425781 108.675781 Z M 118.425781 108.675781 "/>
<path style=" stroke:none;fill-rule:nonzero;fill:rgb(67.058825%,71.372551%,74.509805%);fill-opacity:1;" d="M 123.789062 103.085938 C 122.324219 104.851562 123.1875 106.761719 126 108.113281 C 127.460938 108.789062 128.625 109.800781 128.625 110.363281 C 128.625 111.675781 125.210938 112.164062 124.5 110.960938 C 124.164062 110.476562 123.488281 110.210938 123 110.363281 C 121.351562 110.925781 124.386719 113.25 126.75 113.25 C 131.738281 113.25 132.226562 108.863281 127.425781 106.949219 C 125.8125 106.273438 124.5 105.414062 124.5 105 C 124.5 103.6875 126.863281 103.199219 128.4375 104.175781 C 130.238281 105.300781 131.0625 104.699219 129.75 103.125 C 128.550781 101.699219 124.949219 101.664062 123.789062 103.085938 Z M 123.789062 103.085938 "/>
</g>
</svg>
