<?xml version="1.0" encoding="UTF-8"?>
<svg xmlns="http://www.w3.org/2000/svg" xmlns:xlink="http://www.w3.org/1999/xlink" width="150px" height="150px" viewBox="0 0 150 35" version="1.1">
<g id="surface1">
<path style=" stroke:none;fill-rule:nonzero;fill:rgb(67.058825%,71.372551%,74.509805%);fill-opacity:1;" d="M 2 0.371094 C 2 1.058594 17.875 16.390625 18.324219 16.121094 C 18.550781 15.996094 18.675781 12.300781 18.601562 7.9375 L 18.449219 0 L 14 0 L 14 2.710938 C 14 4.289062 13.773438 5.421875 13.476562 5.421875 C 13.175781 5.421875 13.101562 5.152344 13.300781 4.855469 C 13.550781 4.460938 13.398438 4.363281 12.898438 4.558594 C 11.648438 5.027344 9.476562 3.351562 10.050781 2.339844 C 10.425781 1.699219 10.375 1.554688 9.824219 1.773438 C 9.425781 1.921875 8.949219 1.800781 8.773438 1.503906 C 8.574219 1.207031 8.175781 1.109375 7.875 1.304688 C 7.523438 1.527344 7.449219 1.355469 7.648438 0.8125 C 7.925781 0.125 7.550781 0 4.976562 0 C 3.351562 0 2 0.171875 2 0.371094 Z M 2 0.371094 "/>
<path style=" stroke:none;fill-rule:nonzero;fill:rgb(67.058825%,71.372551%,74.509805%);fill-opacity:1;" d="M 0 10.84375 L 0 18.238281 L 7.5 18.238281 C 15.5 18.238281 15.75 18.140625 13.601562 16.121094 C 12.300781 14.886719 11.875 14.789062 7.851562 14.789062 L 3.5 14.789062 L 3.5 10.449219 C 3.5 6.335938 3.425781 6.039062 2.101562 4.78125 C 0.0234375 2.808594 0 2.859375 0 10.84375 Z M 0 10.84375 "/>
<path style=" stroke:none;fill-rule:nonzero;fill:rgb(67.058825%,71.372551%,74.509805%);fill-opacity:1;" d="M 94.101562 6.1875 C 91.625 7.910156 94.199219 11.3125 96.75 9.660156 C 98.25 8.675781 98.324219 7.714844 97 6.410156 C 95.800781 5.226562 95.550781 5.199219 94.101562 6.1875 Z M 94.101562 6.1875 "/>
<path style=" stroke:none;fill-rule:nonzero;fill:rgb(67.058825%,71.372551%,74.509805%);fill-opacity:1;" d="M 23 14.195312 L 23 21.492188 L 24.648438 23.070312 C 26.898438 25.238281 27 24.992188 27 17.15625 L 27 10.304688 L 29.574219 10.449219 L 32.148438 10.597656 L 32.050781 20.382812 L 31.925781 30.195312 L 33.300781 31.597656 C 35.976562 34.335938 36 34.210938 36 19.964844 L 36 6.902344 L 23 6.902344 Z M 23 14.195312 "/>
<path style=" stroke:none;fill-rule:nonzero;fill:rgb(67.058825%,71.372551%,74.509805%);fill-opacity:1;" d="M 59.5 17.523438 L 59.5 28.148438 L 61.851562 28 L 64.199219 27.851562 L 64.101562 23.167969 C 63.949219 17.523438 64.5 16.09375 66.925781 15.875 C 69.699219 15.601562 70 16.21875 70 22.480469 L 70 28.097656 L 74.5 28.097656 L 74.5 21.738281 C 74.5 15.601562 74.449219 15.304688 73.226562 13.851562 C 71.050781 11.3125 67.476562 11.238281 65.175781 13.679688 L 64 14.9375 L 64 6.902344 L 59.5 6.902344 Z M 59.5 17.523438 "/>
<path style=" stroke:none;fill-rule:nonzero;fill:rgb(67.058825%,71.372551%,74.509805%);fill-opacity:1;" d="M 47.5 10.351562 C 47.5 12.125 47.375 12.324219 46.25 12.324219 C 45.199219 12.324219 45 12.546875 45 13.804688 C 45 15.058594 45.199219 15.28125 46.25 15.28125 C 47.5 15.28125 47.5 15.28125 47.5 20.160156 C 47.5 25.878906 47.648438 26.421875 49.523438 27.382812 C 50.875 28.050781 54.550781 28.371094 55.074219 27.851562 C 55.898438 27.0625 54.800781 24.695312 53.574219 24.550781 C 52.25 24.402344 52.25 24.351562 52.101562 19.839844 L 51.949219 15.28125 L 53.476562 15.28125 C 54.824219 15.28125 55 15.109375 55 13.804688 C 55 12.496094 54.824219 12.324219 53.5 12.324219 C 52.074219 12.324219 52 12.226562 52 10.351562 L 52 8.378906 L 47.5 8.378906 Z M 47.5 10.351562 "/>
<path style=" stroke:none;fill-rule:nonzero;fill:rgb(67.058825%,71.372551%,74.509805%);fill-opacity:1;" d="M 85.898438 12.445312 C 85.476562 12.792969 84.875 13.507812 84.574219 14.050781 C 84.074219 14.960938 84.023438 14.9375 84.023438 13.679688 C 84 12.398438 83.875 12.324219 81.75 12.324219 L 79.5 12.324219 L 79.5 28.097656 L 84 28.097656 L 84 22.921875 C 84 16.933594 84.625 15.773438 87.75 15.773438 C 89.449219 15.773438 89.5 15.726562 89.5 13.804688 C 89.5 11.660156 87.75 10.992188 85.898438 12.445312 Z M 85.898438 12.445312 "/>
<path style=" stroke:none;fill-rule:nonzero;fill:rgb(67.058825%,71.372551%,74.509805%);fill-opacity:1;" d="M 103 13.976562 L 103 15.875 L 106.75 15.699219 C 108.824219 15.601562 110.5 15.578125 110.5 15.675781 C 110.5 15.773438 108.699219 18.019531 106.5 20.679688 C 103.726562 24.03125 102.5 25.90625 102.5 26.816406 L 102.5 28.125 L 109.351562 28 L 116.175781 27.851562 L 116.175781 24.402344 L 112.351562 24.574219 C 107.675781 24.796875 107.675781 25.117188 112.25 19.519531 C 114.75 16.464844 116 14.492188 116 13.65625 L 116 12.375 L 103 12.078125 Z M 103 13.976562 "/>
<path style=" stroke:none;fill-rule:nonzero;fill:rgb(67.058825%,71.372551%,74.509805%);fill-opacity:1;" d="M 124.101562 12.890625 C 118.898438 15.429688 118.5 23.734375 123.449219 26.988281 C 127.199219 29.453125 135 27.480469 135 24.082031 C 135 22.800781 131.824219 22.847656 130.125 24.15625 C 128.074219 25.757812 125.398438 25.019531 124.550781 22.601562 L 124.050781 21.195312 L 135.625 21.195312 L 135.25 18.855469 C 134.375 13.015625 129.351562 10.328125 124.101562 12.890625 Z M 130.074219 16.09375 C 131.949219 17.769531 131.273438 18.484375 127.75 18.511719 C 125.175781 18.558594 124.5 18.410156 124.5 17.820312 C 124.5 15.601562 128.25 14.445312 130.074219 16.09375 Z M 130.074219 16.09375 "/>
<path style=" stroke:none;fill-rule:nonzero;fill:rgb(67.058825%,71.372551%,74.509805%);fill-opacity:1;" d="M 145.449219 13.261719 L 144 14.714844 L 144 13.507812 C 144 12.421875 143.800781 12.324219 141.75 12.324219 L 139.5 12.324219 L 139.5 28.097656 L 144 28.097656 L 144 23.242188 C 144 17.425781 144.824219 15.773438 147.773438 15.773438 C 149.449219 15.773438 149.5 15.726562 149.5 13.804688 C 149.5 11.265625 147.726562 11.042969 145.449219 13.261719 Z M 145.449219 13.261719 "/>
<path style=" stroke:none;fill-rule:nonzero;fill:rgb(67.058825%,71.372551%,74.509805%);fill-opacity:1;" d="M 93 20.210938 L 93 28.097656 L 97.5 28.097656 L 97.5 12.324219 L 93 12.324219 Z M 93 20.210938 "/>
<path style=" stroke:none;fill-rule:nonzero;fill:rgb(67.058825%,71.372551%,74.509805%);fill-opacity:1;" d="M 7.101562 28.617188 L 7.25 34.554688 L 19.625 34.65625 C 26.425781 34.703125 32 34.628906 32 34.507812 C 32 34.359375 29.351562 31.648438 26.125 28.46875 L 20.226562 22.675781 L 6.976562 22.675781 Z M 18.5 27.113281 C 18.5 27.382812 18.773438 27.605469 19.125 27.628906 C 20.199219 27.65625 22.101562 29.503906 21.699219 30.144531 C 21.476562 30.488281 21.550781 30.589844 21.898438 30.367188 C 22.699219 29.898438 24.476562 31.550781 24.125 32.4375 C 23.949219 32.855469 24.050781 33.054688 24.300781 32.90625 C 24.550781 32.757812 25.148438 32.90625 25.648438 33.273438 C 26.398438 33.792969 25.300781 33.890625 18.925781 33.839844 L 11.300781 33.769531 L 11.101562 30.859375 C 10.875 27.457031 11 27.335938 14.925781 27.382812 C 16.574219 27.410156 17.824219 27.234375 17.699219 27.015625 C 17.550781 26.792969 17.675781 26.621094 17.976562 26.621094 C 18.25 26.621094 18.5 26.839844 18.5 27.113281 Z M 18.5 27.113281 "/>
</g>
</svg>
