<svg width="118" height="51" viewBox="0 0 118 51" fill="none" xmlns="http://www.w3.org/2000/svg">
<g clip-path="url(#clip0_187_2462)">
<path d="M82.4318 41.9844C80.711 41.9844 79.3129 43.3797 79.3129 45.1033C79.3129 46.827 80.7082 48.2223 82.4318 48.2223C84.1555 48.2223 85.5508 46.827 85.5508 45.1033C85.5508 43.3797 84.1555 41.9844 82.4318 41.9844ZM82.3837 46.4392C81.7412 46.4392 81.2205 45.9185 81.2205 45.276C81.2205 44.6335 81.7412 44.1127 82.3837 44.1127C83.0262 44.1127 83.547 44.6335 83.547 45.276C83.547 45.9185 83.0262 46.4392 82.3837 46.4392Z" fill="#F15D2A"/>
<path d="M82.4319 48.2988C80.6686 48.2988 79.2336 46.8638 79.2336 45.1006C79.2336 43.3373 80.6686 41.9023 82.4319 41.9023C84.1951 41.9023 85.6301 43.3373 85.6301 45.1006C85.6301 46.8638 84.1951 48.2988 82.4319 48.2988ZM82.4319 42.0637C80.7563 42.0637 79.395 43.425 79.395 45.1006C79.395 46.7761 80.7563 48.1374 82.4319 48.1374C84.1074 48.1374 85.4687 46.7761 85.4687 45.1006C85.4687 43.425 84.1074 42.0637 82.4319 42.0637ZM82.3837 46.5185C81.6988 46.5185 81.1412 45.961 81.1412 45.276C81.1412 44.5911 81.6988 44.0335 82.3837 44.0335C83.0687 44.0335 83.6262 44.5911 83.6262 45.276C83.6262 45.961 83.0687 46.5185 82.3837 46.5185ZM82.3837 44.1949C81.7865 44.1949 81.3026 44.6788 81.3026 45.276C81.3026 45.8732 81.7865 46.3572 82.3837 46.3572C82.9809 46.3572 83.4649 45.8732 83.4649 45.276C83.4649 44.6788 82.9781 44.1949 82.3837 44.1949Z" fill="#F15D2A"/>
<path d="M73.6806 24.1338C73.6919 23.9527 73.7089 23.7715 73.7259 23.5904C73.808 22.7583 73.9467 21.9262 74.1363 21.1167C76.1543 12.5579 83.7168 6.58323 92.5246 6.58323C102.943 6.58323 111.417 15.0571 111.417 25.4753C111.417 35.8936 102.943 44.3675 92.5246 44.3675C91.7463 44.3675 90.9623 44.3193 90.1953 44.2259C88.3952 44.008 86.748 45.2873 86.5273 47.0902C86.3065 48.8959 87.5886 50.5375 89.3915 50.7582C90.4246 50.8856 91.4774 50.9479 92.5246 50.9479C106.571 50.9479 118 39.5192 118 25.4725C118 11.4258 106.574 0 92.5275 0C80.6516 0 70.4569 8.06063 67.7314 19.6053C67.4172 20.9356 67.2106 22.3026 67.1144 23.6725C67.0889 24.0234 67.12 24.3659 67.2021 24.6914C67.2304 24.8017 67.2615 24.9093 67.3012 25.0168C67.3012 25.0168 68.3399 22.4979 70.4003 23.6753C70.4003 23.6753 71.2607 23.8847 72.4381 25.2518L73.6835 24.1338H73.6806Z" fill="#F15D2A"/>
<path d="M13.3957 31.1443H11.1909V26.3073C11.1909 25.6167 11.0692 25.1129 10.8286 24.7931C10.5881 24.4761 10.2569 24.3148 9.84088 24.3148C9.42483 24.3148 9.00595 24.4818 8.62386 24.8158C8.23894 25.1497 7.96441 25.5856 7.80025 26.1234V31.1414H5.59546V26.3045C5.59546 25.6139 5.47659 25.1101 5.24168 24.7903C5.00393 24.4733 4.67845 24.312 4.2624 24.312C3.84635 24.312 3.42747 24.4761 3.03689 24.8044C2.64631 25.1328 2.36894 25.5658 2.20479 26.1035V31.1386H0V22.5148H1.99252V24.111C2.30951 23.5506 2.74537 23.1204 3.30011 22.8204C3.85484 22.5176 4.48599 22.3676 5.20205 22.3676C5.91811 22.3676 6.48134 22.5431 6.87192 22.894C7.2625 23.245 7.51722 23.678 7.63609 24.1931C7.98705 23.6016 8.4314 23.1487 8.96916 22.8346C9.50691 22.5204 10.1211 22.3647 10.8117 22.3647C11.3381 22.3647 11.7711 22.4638 12.1108 22.6619C12.4504 22.86 12.7136 23.1176 12.9004 23.4346C13.0872 23.7516 13.2174 24.1139 13.2882 24.5214C13.3589 24.9261 13.3957 25.3394 13.3957 25.7554V31.1358V31.1443Z" fill="white"/>
<path d="M17.2618 31.3086C16.3731 31.3086 15.6995 31.0228 15.2382 30.4539C14.7769 29.8822 14.5476 29.0387 14.5476 27.9208V22.5234H16.7524V27.4453C16.7524 28.7727 17.2307 29.435 18.1845 29.435C18.6232 29.435 19.0421 29.3076 19.444 29.0501C19.8459 28.7925 20.1714 28.3991 20.4233 27.8727V22.5234H22.6281V28.6114C22.6281 28.8434 22.6705 29.0076 22.7582 29.1038C22.846 29.2029 22.9988 29.2595 23.2196 29.268V31.1445C22.9903 31.1869 22.7865 31.2181 22.6111 31.235C22.4356 31.252 22.2828 31.2605 22.1497 31.2605C21.7563 31.2605 21.445 31.1699 21.2214 30.9888C20.9978 30.8077 20.8563 30.5586 20.8025 30.2388L20.7544 29.5312C20.361 30.1227 19.8629 30.5671 19.2657 30.8643C18.6685 31.1586 18.0005 31.3086 17.2675 31.3086H17.2618Z" fill="white"/>
<path d="M27.6122 31.3086C27.2612 31.3086 26.8961 31.2803 26.5168 31.2265C26.1376 31.1699 25.7668 31.0935 25.4074 30.9945C25.0451 30.8954 24.6998 30.7765 24.3715 30.6322C24.0432 30.4907 23.7517 30.3293 23.4998 30.1539L24.3885 28.6566C25.4838 29.3699 26.5451 29.7265 27.564 29.7265C28.0254 29.7265 28.3876 29.6444 28.6509 29.4803C28.9141 29.3161 29.0443 29.0812 29.0443 28.7727C29.0443 28.4642 28.8886 28.2378 28.5744 28.0906C28.2603 27.9434 27.7367 27.7821 27.0036 27.6066C26.4432 27.4736 25.9678 27.3377 25.5715 27.1962C25.1753 27.0547 24.8583 26.8877 24.6177 26.7038C24.3771 26.517 24.2017 26.3047 24.0913 26.0613C23.9809 25.8207 23.9271 25.5348 23.9271 25.2065C23.9271 24.7678 24.0149 24.3716 24.1903 24.0207C24.3658 23.6697 24.6092 23.3697 24.9234 23.1235C25.2347 22.8772 25.6027 22.6876 26.0244 22.5546C26.4461 22.4215 26.9046 22.3564 27.3971 22.3564C28.0112 22.3564 28.6226 22.4527 29.2311 22.6451C29.8396 22.8376 30.4085 23.098 30.9349 23.4263L30.0292 24.7933C29.5452 24.4876 29.0924 24.2641 28.665 24.1254C28.2376 23.9895 27.8074 23.9188 27.3801 23.9188C26.9838 23.9188 26.6527 23.9952 26.3838 24.1508C26.1149 24.3065 25.9819 24.5499 25.9819 24.8924C25.9819 25.1896 26.1093 25.4018 26.3668 25.5348C26.6244 25.6679 27.0829 25.815 27.7423 25.9792C28.3565 26.1349 28.8801 26.2877 29.3131 26.4405C29.7462 26.5934 30.1028 26.7689 30.383 26.967C30.6632 27.1651 30.867 27.3915 30.9915 27.6491C31.116 27.9066 31.1811 28.218 31.1811 28.5774C31.1811 28.9935 31.0962 29.3727 30.9264 29.7123C30.7566 30.052 30.5188 30.3407 30.2103 30.5756C29.9018 30.8105 29.5283 30.9916 29.0839 31.119C28.6395 31.2464 28.1499 31.3086 27.6122 31.3086Z" fill="white"/>
<path d="M39.9211 31.1445H37.7163V26.3075C37.7163 25.6283 37.589 25.1273 37.3371 24.8018C37.0852 24.4792 36.7286 24.3178 36.2672 24.3178C36.0691 24.3178 35.8597 24.3603 35.6417 24.4509C35.4238 24.5386 35.2144 24.6603 35.0162 24.8216C34.8181 24.9801 34.637 25.1698 34.4728 25.3905C34.3087 25.6113 34.187 25.8518 34.1105 26.1151V31.1501H31.9058V19.1384H34.1105V24.1254C34.4275 23.565 34.8606 23.1348 35.4012 22.8348C35.9446 22.5319 36.5446 22.3819 37.204 22.3819C37.7644 22.3819 38.2201 22.4782 38.5711 22.6706C38.922 22.8631 39.1966 23.1178 39.3947 23.4348C39.5928 23.7546 39.7287 24.1169 39.8051 24.5216C39.8815 24.9292 39.9211 25.3452 39.9211 25.7726V31.153V31.1445Z" fill="white"/>
<path d="M46.2892 24.4309C45.6212 24.4422 45.0212 24.5724 44.4948 24.8187C43.9683 25.0649 43.5891 25.4357 43.3598 25.9281V31.1443H41.155V22.5205H43.1787V24.363C43.4759 23.7715 43.8608 23.2931 44.3391 22.9309C44.8174 22.5686 45.3184 22.3875 45.8448 22.3875C45.9665 22.3875 46.0542 22.3875 46.1165 22.3959C46.1759 22.4016 46.2354 22.4101 46.2892 22.4214V24.4281V24.4309Z" fill="white"/>
<path d="M50.6336 31.3086C49.9317 31.3086 49.3006 31.1869 48.7402 30.9463C48.1798 30.7058 47.7071 30.3775 47.3166 29.9671C46.926 29.5567 46.6288 29.0812 46.4194 28.5434C46.2099 28.0057 46.108 27.4425 46.108 26.8481C46.108 26.2537 46.2127 25.6735 46.4194 25.1358C46.626 24.598 46.926 24.1225 47.3166 23.7122C47.7071 23.3018 48.1798 22.9763 48.7402 22.7329C49.3006 22.4923 49.9289 22.3706 50.6336 22.3706C51.3384 22.3706 51.9639 22.4923 52.5186 22.7329C53.0733 22.9735 53.5432 23.3018 53.9338 23.7122C54.3215 24.1225 54.6215 24.598 54.831 25.1358C55.0404 25.6735 55.1423 26.2453 55.1423 26.8481C55.1423 27.451 55.0376 28.0057 54.831 28.5434C54.6215 29.0812 54.3272 29.5539 53.9422 29.9671C53.5573 30.3775 53.0875 30.7058 52.5271 30.9463C51.9667 31.1869 51.3356 31.3086 50.6336 31.3086ZM48.3807 26.8481C48.3807 27.233 48.4374 27.5811 48.5534 27.8925C48.6694 28.2038 48.8279 28.4755 49.0317 28.7076C49.2355 28.9369 49.4732 29.1152 49.7478 29.2425C50.0223 29.3699 50.3195 29.4322 50.6365 29.4322C50.9535 29.4322 51.2506 29.3699 51.5252 29.2425C51.7997 29.1152 52.0375 28.9369 52.2412 28.7076C52.445 28.4783 52.6035 28.2038 52.7196 27.884C52.8356 27.567 52.8922 27.216 52.8922 26.8311C52.8922 26.4462 52.8356 26.1122 52.7196 25.7952C52.6035 25.4783 52.445 25.2037 52.2412 24.9716C52.0375 24.7395 51.7997 24.5641 51.5252 24.4367C51.2506 24.3093 50.9563 24.2471 50.6365 24.2471C50.3167 24.2471 50.0223 24.3122 49.7478 24.4452C49.4732 24.5754 49.2355 24.7565 49.0317 24.9886C48.8279 25.2207 48.6694 25.4952 48.5534 25.8122C48.4374 26.132 48.3807 26.4773 48.3807 26.8481Z" fill="white"/>
<path d="M59.9283 31.3086C59.2264 31.3086 58.5953 31.1869 58.0349 30.9463C57.4745 30.7058 57.0018 30.3775 56.6112 29.9671C56.2207 29.5567 55.9235 29.0812 55.714 28.5434C55.5046 28.0057 55.4027 27.4425 55.4027 26.8481C55.4027 26.2537 55.5074 25.6735 55.714 25.1358C55.9207 24.598 56.2207 24.1225 56.6112 23.7122C57.0018 23.3018 57.4745 22.9763 58.0349 22.7329C58.5953 22.4923 59.2236 22.3706 59.9283 22.3706C60.6331 22.3706 61.2586 22.4923 61.8133 22.7329C62.368 22.9735 62.8379 23.3018 63.2284 23.7122C63.6162 24.1225 63.9162 24.598 64.1256 25.1358C64.3351 25.6735 64.437 26.2453 64.437 26.8481C64.437 27.451 64.3322 28.0057 64.1256 28.5434C63.9162 29.0812 63.6218 29.5539 63.2369 29.9671C62.852 30.3775 62.3822 30.7058 61.8218 30.9463C61.2614 31.1869 60.6302 31.3086 59.9283 31.3086ZM57.6754 26.8481C57.6754 27.233 57.732 27.5811 57.8481 27.8925C57.9641 28.2038 58.1226 28.4755 58.3264 28.7076C58.5302 28.9369 58.7679 29.1152 59.0424 29.2425C59.317 29.3699 59.6142 29.4322 59.9312 29.4322C60.2481 29.4322 60.5453 29.3699 60.8199 29.2425C61.0944 29.1152 61.3321 28.9369 61.5359 28.7076C61.7397 28.4783 61.8982 28.2038 62.0142 27.884C62.1303 27.567 62.1869 27.216 62.1869 26.8311C62.1869 26.4462 62.1303 26.1122 62.0142 25.7952C61.8982 25.4783 61.7397 25.2037 61.5359 24.9716C61.3321 24.7395 61.0944 24.5641 60.8199 24.4367C60.5453 24.3093 60.251 24.2471 59.9312 24.2471C59.6113 24.2471 59.317 24.3122 59.0424 24.4452C58.7679 24.5754 58.5302 24.7565 58.3264 24.9886C58.1226 25.2207 57.9641 25.4952 57.8481 25.8122C57.732 26.132 57.6754 26.4773 57.6754 26.8481Z" fill="white"/>
<path d="M78.6223 31.1443H76.4175V26.3073C76.4175 25.6167 76.2958 25.1129 76.0552 24.7931C75.8146 24.4761 75.4835 24.3148 75.0674 24.3148C74.6514 24.3148 74.2325 24.4818 73.8504 24.8158C73.4655 25.1497 73.191 25.5856 73.0268 26.1234V31.1414H70.822V26.3045C70.822 25.6139 70.7031 25.1101 70.4682 24.7903C70.2305 24.4733 69.905 24.312 69.489 24.312C69.0729 24.312 68.654 24.4761 68.2635 24.8044C67.8729 25.1328 67.5955 25.5658 67.4313 26.1035V31.1386H65.2266V22.5148H67.2191V24.111C67.5361 23.5506 67.9719 23.1204 68.5267 22.8204C69.0814 22.5176 69.7126 22.3676 70.4286 22.3676C71.1447 22.3676 71.7079 22.5431 72.0985 22.894C72.4891 23.245 72.7438 23.678 72.8627 24.1931C73.2136 23.6016 73.658 23.1487 74.1957 22.8346C74.7335 22.5204 75.3476 22.3647 76.0382 22.3647C76.5647 22.3647 76.9977 22.4638 77.3373 22.6619C77.677 22.86 77.9402 23.1176 78.127 23.4346C78.3138 23.7516 78.444 24.1139 78.5147 24.5214C78.5855 24.9261 78.6223 25.3394 78.6223 25.7554V31.1358V31.1443Z" fill="white"/>
<path d="M83.5102 31.3086C83.148 31.3086 82.7602 31.2803 82.3413 31.2265C81.9253 31.1699 81.5149 31.0992 81.1158 31.0114C80.7167 30.9237 80.329 30.8161 79.9554 30.6916C79.5818 30.5642 79.2592 30.4255 78.9846 30.2727L80.1847 28.15C80.7875 28.467 81.3649 28.7104 81.9111 28.8746C82.4602 29.0387 82.9697 29.1208 83.4423 29.1208C83.9914 29.1208 84.2659 28.9849 84.2659 28.7104C84.2659 28.5689 84.1555 28.4415 83.9376 28.3311C83.7168 28.2208 83.3008 28.0906 82.6866 27.9377C82.0724 27.7736 81.5573 27.6094 81.1413 27.4453C80.7252 27.2811 80.3913 27.0971 80.1365 26.8934C79.8846 26.6896 79.7035 26.466 79.5931 26.2198C79.4827 25.9735 79.429 25.6848 79.429 25.3565C79.429 24.9178 79.5195 24.5131 79.7007 24.1395C79.8818 23.7659 80.1365 23.4432 80.4648 23.1687C80.7932 22.8942 81.1866 22.6847 81.6422 22.5347C82.0979 22.3876 82.5932 22.314 83.131 22.314C83.714 22.314 84.3338 22.396 84.999 22.5602C85.6612 22.7244 86.3405 22.9649 87.0311 23.2848L85.8311 25.2773C85.2169 24.9914 84.7074 24.7848 84.2999 24.6603C83.8923 24.5329 83.5046 24.4706 83.131 24.4706C82.8904 24.4706 82.6951 24.5074 82.5479 24.5782C82.4008 24.6489 82.3243 24.7622 82.3243 24.915C82.3243 25.0027 82.347 25.0763 82.3894 25.1386C82.4319 25.2009 82.5111 25.2575 82.6215 25.3112C82.7319 25.365 82.8819 25.4244 83.0744 25.4839C83.2668 25.5433 83.5046 25.6084 83.7904 25.6735C84.4499 25.8377 85.0018 26.0103 85.4518 26.1914C85.9018 26.3726 86.2613 26.5707 86.5301 26.783C86.799 26.9981 86.9915 27.2387 87.1047 27.5075C87.2207 27.7764 87.2773 28.0877 87.2773 28.4387C87.2773 29.3274 86.9405 30.0293 86.2641 30.5444C85.5905 31.0595 84.6706 31.3171 83.5074 31.3171L83.5102 31.3086Z" fill="#F15D2A"/>
<path d="M91.9359 31.3085C91.1576 31.3085 90.4755 31.184 89.8868 30.9378C89.3009 30.6915 88.8056 30.3632 88.4065 29.95C88.0075 29.5396 87.7046 29.0613 87.5009 28.5179C87.2971 27.9745 87.1952 27.4084 87.1952 26.8141C87.1952 26.2197 87.2971 25.6536 87.5009 25.1102C87.7046 24.5668 88.0046 24.0913 88.4065 23.6781C88.8056 23.2677 89.3009 22.9366 89.8868 22.6903C90.4727 22.4441 91.1576 22.3196 91.9359 22.3196C92.7142 22.3196 93.385 22.4441 93.9765 22.6903C94.5681 22.9366 95.0634 23.2649 95.4653 23.6781C95.8672 24.0913 96.1672 24.5668 96.371 25.1102C96.5747 25.6536 96.6766 26.2197 96.6766 26.8141C96.6766 27.4084 96.5747 27.9745 96.371 28.5179C96.1672 29.0613 95.8672 29.5368 95.4653 29.95C95.0634 30.3632 94.5681 30.6915 93.9765 30.9378C93.385 31.184 92.7029 31.3085 91.9359 31.3085ZM90.4047 26.8169C90.4047 27.3999 90.5462 27.8528 90.8321 28.1839C91.118 28.5122 91.4859 28.6764 91.9331 28.6764C92.3803 28.6764 92.751 28.5122 93.0341 28.1839C93.3171 27.8556 93.4614 27.3999 93.4614 26.8169C93.4614 26.2339 93.3199 25.781 93.0341 25.4499C92.7482 25.1187 92.3803 24.9574 91.9331 24.9574C91.4859 24.9574 91.1151 25.1216 90.8321 25.4499C90.5462 25.7782 90.4047 26.2339 90.4047 26.8169Z" fill="#F15D2A"/>
<path d="M97.7097 31.1444V25.8461H96.6399V23.4941H97.7097V22.5573C97.7097 22.0195 97.7862 21.5299 97.939 21.0827C98.0918 20.6384 98.3069 20.2591 98.5815 19.9478C98.856 19.6365 99.1871 19.393 99.5777 19.2232C99.9683 19.0534 100.404 18.9685 100.885 18.9685C101.61 18.9685 102.411 19.1327 103.288 19.461L102.762 21.8299C102.575 21.7648 102.374 21.711 102.162 21.6658C101.947 21.6233 101.757 21.6007 101.593 21.6007C101.089 21.6007 100.837 21.8809 100.837 22.4384V23.4913H102.731V25.8433H100.837V31.1415H97.7097V31.1444Z" fill="#F15D2A"/>
<path d="M109.229 30.6662C108.79 30.853 108.32 31.0086 107.822 31.136C107.324 31.2634 106.832 31.3256 106.351 31.3256C106 31.3256 105.666 31.2832 105.346 31.1954C105.026 31.1077 104.751 30.9633 104.514 30.7681C104.279 30.5699 104.092 30.3124 103.953 29.9954C103.817 29.6784 103.747 29.2822 103.747 28.8095V25.849H102.677V23.4971H103.747V19.7781H106.874V23.4971H108.57V25.849H106.874V27.7085C106.874 27.9944 106.934 28.1953 107.055 28.3085C107.177 28.4217 107.341 28.4812 107.548 28.4812C107.701 28.4812 107.876 28.4557 108.074 28.4076C108.272 28.3595 108.47 28.2887 108.666 28.201L109.226 30.669L109.229 30.6662Z" fill="#F15D2A"/>
</g>
<defs>
<clipPath id="clip0_187_2462">
<rect width="118" height="50.9479" fill="white"/>
</clipPath>
</defs>
</svg>
